Patient4_TMGait_0pt3_02_left_01_EMG.mot
version=1
nRows=23
nColumns=33
inDegrees=no
endheader
time	1LAddLong	2LGlutMax	3LGlutMed	4LIliopsoas	5LSemiMemb	6LBicFemLong	7LRecFem	8LVastMed	9LVastLat	10LGasMed	11LTibAnt	12lTibPost	13LPeroneusLong	14LSol	15LExtDigLong	16LFlexDigLong	17RAddLong	18RGlutMax	19RGlutMed	20RIliopsoas	21RSemiMemb	22RBicFemLong	23RRecFem	24RVastMed	25RVastLat	26RGasMed	27RTibAnt	28RTibPost	29RPeroneusLong	30RSol	31RExtDigLong	32RFlexDigLong
1.872	0.016937	0.046387	0.002441	-0.004272	-0.009003	0.10941	-0.011139	-0.005493	0.051575	-0.014954	0.00824	-0.000305	0.069733	-0.076599	-0.022125	-0.024872	0.003357	-0.15518	0.062866	0.006409	0.003815	0.13428	0.00473	-0.037079	0.012512	-0.059814	0.086975	-0.14816	-0.5481	0.12802	0.001373	-0.01236
1.873	0.01236	0.014648	-0.010834	0.012512	-0.082245	0.034943	-0.012817	-0.007324	0.034332	-0.007324	0.02121	-0.010529	-0.04364	-0.052338	0.005493	-0.006714	0.020142	-0.15717	0.47058	0.028076	0.019226	0.046997	-0.001068	-0.026398	0.013428	-0.040436	-0.004578	0.35645	-0.25955	0.67429	0.000305	-0.01709
1.874	0.014343	0.000458	-0.025635	0.02182	-0.036316	-0.097961	-0.014801	-0.014496	0.067444	-0.015717	0.017395	0.000916	0.000458	-0.16007	-0.001831	-0.010681	-0.000458	-0.18677	0.56732	0.009155	0.066833	-0.11871	-0.013733	0.010986	0.025482	-0.019226	-0.006104	0.11978	-0.44418	0.79163	-0.00061	-0.008545
1.875	0.0354	0.04364	-0.041962	0.019836	0.077515	-0.10223	-0.021667	-0.009613	0.042572	-0.015564	0.014191	-0.009308	-0.006409	-0.15457	0.008545	-0.015564	-0.007172	-0.14923	-0.033417	-0.074921	0.034332	-0.089569	-0.025482	0.038147	0.034943	-0.000916	-0.021362	0.013123	-0.059967	0.88638	-0.002594	-0.004883
1.876	0.035553	-0.032806	-0.030975	0.00885	0.11673	-0.028381	0.018768	-0.003357	-0.062103	0.010681	0.018311	0.002289	-0.15411	-0.052185	0.011597	-0.000458	0.002899	-0.20157	-0.048218	-0.041199	0.11505	-0.086365	-0.003204	-0.03006	0.03006	0.001678	-0.023041	0.047607	0.053253	0.45471	-0.00061	-0.010834
1.877	0.024719	-0.013428	-0.012054	0.007172	0.050354	0.049133	0.065613	-0.001221	-0.028534	-0.009155	0.026398	-0.002594	-0.20569	-0.063324	-0.014343	0.00351	0.009308	-0.19989	0.16495	-0.060577	0.11063	0.000305	0.042725	-0.039825	0.013733	0.011597	-0.013275	-0.002899	-0.046844	0.10086	-0.000458	-0.004578
1.878	0.03067	0.065308	0.001678	-0.009155	-0.030518	0.050201	0.088043	0.001831	0.019379	-0.023346	0.016327	0.001526	-0.12466	-0.054779	0.006714	-0.003967	0.003967	-0.20279	0.007477	-0.013885	0.016632	0.033417	0.042572	-0.009613	0.016785	0.012665	-0.00885	-0.050812	-0.034027	0.051575	-0.001831	-0.003815
1.879	0.021973	0.075684	-0.065765	0.000153	-0.083771	0.007019	0.064392	0.001831	0.029144	-0.020599	-0.00946	0.004272	0.31357	-0.018311	0.02182	0.002899	-0.004883	-0.2063	0.20981	0.042267	0.019684	0.030823	0.033417	-0.048828	0.004272	0.009003	0.001526	-0.047302	0.010223	-0.046387	0.005798	-0.014648
1.88	0.011597	0.042114	-0.085449	0.001068	-0.043793	-0.058136	0.040436	0.002441	0.007782	-0.009308	-0.000305	-0.003204	0.71808	0.022278	0.033264	0.001984	0.001068	-0.22385	0.088959	0.058289	0.015106	0.00885	0.057526	-0.030975	-0.015259	0.005493	0.000916	-0.054474	0.004272	-0.09552	-0.000153	-0.006714
1.881	0.016785	0.06485	-0.043793	-0.013428	0.069122	0.067444	0.032654	0.003967	0.009155	0.004578	0.014496	-0.005493	0.72906	0.089874	0.065308	-0.013428	0.005798	-0.16174	-0.10239	0.068817	-0.002899	0.023346	0.074463	-0.062256	-0.021973	0.011749	0.00473	-0.059814	-0.070496	-0.099792	-0.001678	-0.010376
1.882	0.00946	0.091553	0.00946	-0.023346	0.040588	0.13687	0.027771	0.001526	0.018158	-0.051727	-0.019531	-0.004883	0.64453	0.1944	0.1033	-0.016022	-0.001984	-0.14557	0.056305	0.084229	-0.021362	0.018921	0.089874	-0.067596	-0.041199	0.018005	0.021515	-0.056763	-0.04303	-0.055389	-0.002899	-0.015564
1.883	0.003662	0.13412	0.011139	-0.019226	0.002594	0.19745	0.032043	0.000153	0.013123	0	-0.001526	0.001373	-0.69015	0.21774	0.057678	0.001678	0.018463	-0.15305	0.009613	0.023651	-0.029449	0.014648	0.078888	-0.033264	-0.073853	0.035706	0.039368	-0.059357	-0.064392	-0.078735	-0.002441	-0.016174
1.884	0.002136	0.092316	-0.015869	-0.000305	0.06485	0.25314	0.033112	0.003815	-0.002289	0.049896	0.039063	0.005341	-0.46204	0.16007	-0.006561	-0.006561	0.011139	-0.17624	-0.16892	0.013428	-0.086212	0.009308	0.04776	-0.018311	-0.043945	0.054779	0.047302	-0.049286	0.018005	-0.14023	-0.002899	-0.007172
1.885	-0.003967	0.11337	-0.005951	0.007477	0.009003	0.34744	0.044403	0.004578	-0.00351	0.04776	0.023651	0.002441	-0.07309	0.10742	0.026398	-0.002899	0.004578	-0.16708	-0.048981	-0.003357	0.036011	0.001678	0.040283	0.00351	-0.035248	0.074768	0.051575	-0.070038	-0.2066	-0.18875	-0.001373	-0.003052
1.886	-0.018921	0.092316	-0.02182	0.017548	-0.002289	0.2771	0.075836	0.007019	-0.00946	0.019836	0.021973	0.010071	-0.71549	-0.050354	0.016632	0.005035	-0.000153	-0.15717	-0.031433	0.006714	0.08194	-0.00412	-0.10513	-0.069122	-0.009155	0.07019	-0.001678	-0.052948	-0.71945	-0.28214	0	0.000458
1.887	-0.005341	0.084686	0.016327	0.012054	-0.030975	0.20187	0.06546	0.016327	-0.000763	0.027313	0.016937	0.001526	-0.81726	-0.28732	-0.18631	-0.001984	-0.00061	-0.11017	-0.081635	-0.005646	0.03418	0.008392	-0.074005	-0.077667	0.025024	-0.000458	-0.036011	-0.21118	-1.0114	-0.72479	0.000305	-0.018616
1.888	-0.010834	0.09201	0.014648	-0.004425	-0.078125	0.084839	0.053253	0.005646	0.004578	0.08194	0.013885	0.007324	-0.18295	-0.30777	-0.23651	-0.011139	0.005798	-0.15717	0.17548	0.044708	0.024109	0.016937	0.022583	-0.087433	0.097351	-0.016174	-0.037689	-0.099487	-0.84808	-1.3438	-0.003204	-0.02533
1.889	-0.00351	0.092316	0.013275	-0.001678	-0.057831	-0.023804	0.082092	0.010376	0.012054	0.13412	-0.010834	0.002747	0.054932	-0.24811	-0.18341	-0.017853	-0.000763	-0.14847	0.089874	0.019379	0.005646	-0.005646	0.079498	-0.056152	0.12833	-0.045166	-0.028534	-0.59097	-0.21774	-1.5202	-0.001068	-0.034332
1.89	0.006561	0.055695	0.056763	0.006866	-0.032501	-0.2803	0.1355	-0.001068	0.037384	0.20004	-0.011139	0.002289	0.074921	-0.15076	-0.12085	-0.00824	0.007782	-0.18265	0.097656	0.031586	0.004883	-0.005646	0.070496	-0.10468	0.098419	-0.060425	-0.037079	-0.31036	0.084534	-0.8786	-0.003204	-0.037842
1.891	0	0.030518	0.029297	0.001831	-0.02121	-0.36911	0.19852	0.006256	0.039215	0.20752	0.007172	0.003815	-0.036163	-0.13534	-0.002136	-0.001984	0.014496	-0.22827	0.11017	-0.031738	0.005951	-0.00885	-0.014191	-0.1152	0.094757	-0.079346	-0.019836	0.29953	0.063019	0.37521	-0.001526	-0.038757
1.892	0.000153	0.005951	0.032043	-0.002747	0.006409	-0.081024	0.20096	0.007782	0.006714	0.14328	-0.004425	0.004272	0.26215	-0.23025	0.10468	-0.005798	0.001221	-0.1358	0.052338	-0.073547	0.007782	0.027771	-0.12528	-0.08194	0.12009	-0.06073	0.005951	0.42526	0.17349	0.92972	-0.005798	-0.022736
1.893	-0.016632	0.031586	-0.001678	-0.00412	0.008545	0.096741	0.14267	0.012512	0.012054	0.078278	0.010223	0.003662	0.1149	-0.15945	0.10956	-0.018463	0.012054	-0.093689	-0.1944	-0.013428	0.01297	0.008545	-0.080719	0.068359	0.098267	-0.049744	-0.016785	0.27268	0.68939	1.3329	-0.001831	-0.003815
1.894	-0.010681	0.03418	-0.043945	0.021057	0.007935	0.077667	0.090942	0.005646	-0.05127	-0.10269	0.008545	0.007782	-0.056152	-0.17441	0.041351	-0.014496	0.010681	-0.09552	-0.15747	0.023346	0.00473	0.033722	0.019379	0.093994	0.047302	-0.0383	-0.015259	0.071716	0.49759	1.5382	-0.00061	-0.011444
